<?xml version="1.0" standalone="no"?>
<!DOCTYPE svg PUBLIC "-//W3C//DTD SVG 20010904//EN"
 "http://www.w3.org/TR/2001/REC-SVG-20010904/DTD/svg10.dtd">
<svg version="1.0" xmlns="http://www.w3.org/2000/svg"
 width="800.000000pt" height="794.000000pt" viewBox="0 0 800.000000 794.000000"
 preserveAspectRatio="xMidYMid meet">

<g transform="translate(0.000000,794.000000) scale(0.100000,-0.100000)"
fill="#000000" stroke="none">
<path d="M3055 7934 c-811 -65 -1533 -394 -2094 -955 -479 -479 -802 -1099
-910 -1749 -40 -238 -46 -305 -46 -565 1 -311 20 -485 85 -762 210 -885 783
-1646 1587 -2101 366 -208 806 -348 1252 -397 189 -21 623 -16 791 9 456 69
869 214 1235 434 l119 73 956 -955 c867 -867 959 -955 994 -962 92 -16 230 35
364 136 107 80 446 428 505 517 82 123 118 236 103 320 -7 34 -106 136 -969
1001 l-962 962 19 33 c199 342 328 676 401 1033 74 368 84 765 29 1144 -177
1218 -1058 2254 -2239 2633 -193 62 -372 100 -635 137 -78 11 -498 21 -585 14z
m443 -1094 c680 -73 1271 -442 1637 -1025 117 -186 228 -457 275 -672 47 -217
63 -509 40 -718 -76 -662 -435 -1239 -1002 -1609 -250 -163 -577 -281 -908
-327 -109 -15 -409 -15 -525 0 -399 52 -754 198 -1080 444 -114 86 -319 294
-407 413 -240 324 -384 685 -429 1073 -15 138 -7 486 16 606 43 234 101 411
200 610 316 637 926 1084 1625 1189 58 9 121 17 140 19 80 8 327 6 418 -3z"/>
</g>
</svg>
